<svg xmlns="http://www.w3.org/2000/svg" viewBox="0 0 647.15 250"><title>Hydro-Blk-250</title><g id="Layer_2" data-name="Layer 2"><g id="Layer_1-2" data-name="Layer 1"><path d="M100.53,80.82A40,40,0,0,0,86.72,69.9q-8.4-4.14-20.2-4.14A42.92,42.92,0,0,0,54,67.52a41.67,41.67,0,0,0-10.3,4.64,40.71,40.71,0,0,0-7.9,6.53,29.07,29.07,0,0,0-5.07,7.23.28.28,0,0,1-.27.17.3.3,0,0,1-.31-.3V.31A.31.31,0,0,0,29.81,0H.31A.31.31,0,0,0,0,.31V189.45a.31.31,0,0,0,.31.31h29.5a.31.31,0,0,0,.31-.31V124a40.35,40.35,0,0,1,1.76-11.8,33.13,33.13,0,0,1,5.27-10.42,26,26,0,0,1,8.78-7.4,26.75,26.75,0,0,1,12.55-2.76q7.29,0,11.68,3a20.64,20.64,0,0,1,6.77,7.65,31.44,31.44,0,0,1,3.14,10.3,82.82,82.82,0,0,1,.75,10.91v66a.31.31,0,0,0,.31.31h29.51a.3.3,0,0,0,.3-.31v-75a65.17,65.17,0,0,0-2.51-18.07A44.25,44.25,0,0,0,100.53,80.82Z"/><path d="M256.33,69.28H225.62a.3.3,0,0,0-.29.21L195.6,156.67a.31.31,0,0,1-.29.21h-.07a.31.31,0,0,1-.29-.2l-33.48-87.2a.3.3,0,0,0-.29-.2h-32.7a.3.3,0,0,0-.28.43l51.47,119.93a.33.33,0,0,1,0,.24l-6,15.19q-2,4.77-3.76,8.28a24,24,0,0,1-4,5.9,13.61,13.61,0,0,1-5.52,3.52,24.81,24.81,0,0,1-8,1.13,42.24,42.24,0,0,1-5.4-.38,32.23,32.23,0,0,1-5.53-1.26.3.3,0,0,0-.4.26L138.58,248a.32.32,0,0,0,.23.33,54.2,54.2,0,0,0,7.65,1.31c2.59.25,5.15.38,7.66.38a57.36,57.36,0,0,0,17.19-2.26,36.15,36.15,0,0,0,12.42-6.65,40.85,40.85,0,0,0,9-10.79,105.53,105.53,0,0,0,7-14.69L256.61,69.7A.31.31,0,0,0,256.33,69.28Z"/><path d="M505.56,66.45a14.17,14.17,0,0,0-3.3-.56c-1.34-.09-2.59-.13-3.77-.13a35.05,35.05,0,0,0-21.08,6.53,43.94,43.94,0,0,0-14,16.89.31.31,0,0,1-.28.18h0a.31.31,0,0,1-.31-.31V69.59a.31.31,0,0,0-.31-.31H434.29a.3.3,0,0,0-.3.31V189.45a.3.3,0,0,0,.3.31H463.8a.31.31,0,0,0,.31-.31v-64.2a41.7,41.7,0,0,1,1.25-8.78,32.49,32.49,0,0,1,4.77-10.8,30.15,30.15,0,0,1,9.79-9q6.27-3.77,16.57-3.77a37.33,37.33,0,0,1,4.14.25,41.13,41.13,0,0,1,4.76.91.31.31,0,0,0,.38-.3v-27A.3.3,0,0,0,505.56,66.45Z"/><path d="M397,0h-29.5a.31.31,0,0,0-.31.31v84a.31.31,0,0,1-.31.31h-.29a.33.33,0,0,1-.25-.12,48.64,48.64,0,0,0-5.68-6.16,44.12,44.12,0,0,0-8.41-6,52.77,52.77,0,0,0-26.23-6.53,56.2,56.2,0,0,0-42.16,18.33,60.51,60.51,0,0,0-12.05,20.08A71,71,0,0,0,267.57,129a74.17,74.17,0,0,0,4.14,25,61.28,61.28,0,0,0,11.8,20.33,56.61,56.61,0,0,0,18.57,13.81,57.33,57.33,0,0,0,24.73,5.14,53.39,53.39,0,0,0,24-5.52,41,41,0,0,0,17.35-15.91.31.31,0,0,1,.27-.15h0a.3.3,0,0,1,.3.31v17.45a.31.31,0,0,0,.31.31h28a.31.31,0,0,0,.31-.31V.31A.31.31,0,0,0,397,0ZM365.84,143.45a38.75,38.75,0,0,1-7,12.42,36.22,36.22,0,0,1-11.17,8.91,34.6,34.6,0,0,1-30.12-.12,33.44,33.44,0,0,1-10.79-9,38.5,38.5,0,0,1-6.4-12.55,47.88,47.88,0,0,1-2.14-14,46.66,46.66,0,0,1,2.14-13.93,38.71,38.71,0,0,1,6.4-12.43,32.12,32.12,0,0,1,10.79-8.91,32.76,32.76,0,0,1,15.31-3.39,30.66,30.66,0,0,1,14.81,3.52,38,38,0,0,1,11.17,9,38.53,38.53,0,0,1,7,12.55,43.52,43.52,0,0,1,2.38,14.06A42.4,42.4,0,0,1,365.84,143.45Z"/><path d="M647.12,129.09A64.15,64.15,0,1,0,581,195.2,64.16,64.16,0,0,0,647.12,129.09ZM583,172.91c-17.71,0-32.07-15-32.07-33.62q0-15.4,22.09-41.63,2.61-3.1,8.19-9.23a2.42,2.42,0,0,1,3.59,0q5.22,5.73,7.7,8.66,22.57,26.63,22.57,42.2C615.07,157.86,600.71,172.91,583,172.91Z"/></g></g></svg>