<svg xmlns="http://www.w3.org/2000/svg" viewBox="0 0 186.4 72"><defs><style>.cls-1{fill:#fff;}</style></defs><title>Hydro-Wht-72</title><g id="Layer_2" data-name="Layer 2"><g id="Layer_1-2" data-name="Layer 1"><path class="cls-1" d="M29,23.28a11.52,11.52,0,0,0-4-3.15,13.16,13.16,0,0,0-5.82-1.19,12.32,12.32,0,0,0-3.62.51,11.63,11.63,0,0,0-5.24,3.21A8.33,8.33,0,0,0,8.82,24.8H8.67V0H0V54.65H8.67V35.71a11.53,11.53,0,0,1,.51-3.4,9.65,9.65,0,0,1,1.52-3,7.47,7.47,0,0,1,2.53-2.13,7.69,7.69,0,0,1,3.61-.79,5.81,5.81,0,0,1,3.36.86,5.94,5.94,0,0,1,2,2.21,9.13,9.13,0,0,1,.9,3,24.68,24.68,0,0,1,.22,3.15V54.65H32V33a18.92,18.92,0,0,0-.72-5.2A12.58,12.58,0,0,0,29,23.28Z"/><path class="cls-1" d="M56.31,45.18h-.14L46.48,20H36.87l14.89,34.7L50,59.06c-.38.92-.74,1.71-1.08,2.39a7.05,7.05,0,0,1-1.16,1.7,4,4,0,0,1-1.59,1,7.27,7.27,0,0,1-2.31.32,10.75,10.75,0,0,1-1.55-.11,8.86,8.86,0,0,1-1.7-.39l-.73,7.51a14.36,14.36,0,0,0,2.28.4c.75.07,1.48.11,2.21.11a16.74,16.74,0,0,0,5-.65,10.37,10.37,0,0,0,3.58-1.92,11.78,11.78,0,0,0,2.6-3.1,29.84,29.84,0,0,0,2-4.23L74,20h-9Z"/><path class="cls-1" d="M143.57,18.94a10.14,10.14,0,0,0-6.08,1.88,12.64,12.64,0,0,0-4,4.91h-.15V20H125v34.7h8.67V36.07a12.19,12.19,0,0,1,.36-2.53,9.5,9.5,0,0,1,1.38-3.11,8.56,8.56,0,0,1,2.82-2.6A9.21,9.21,0,0,1,143,26.75a9.84,9.84,0,0,1,1.19.07,11.5,11.5,0,0,1,1.48.29V19.16a3.65,3.65,0,0,0-1-.18C144.27,19,143.9,18.94,143.57,18.94Z"/><path class="cls-1" d="M105.76,24.36h-.22a14,14,0,0,0-1.66-1.81,13.16,13.16,0,0,0-2.42-1.73,15.1,15.1,0,0,0-7.56-1.88,16.18,16.18,0,0,0-12.14,5.28A17.51,17.51,0,0,0,78.29,30a20.48,20.48,0,0,0-1.23,7.16,21.48,21.48,0,0,0,1.19,7.19,17.83,17.83,0,0,0,3.4,5.86,16.2,16.2,0,0,0,12.47,5.45,15.33,15.33,0,0,0,6.9-1.59,11.83,11.83,0,0,0,5-4.62h.14v5.2h8.24V0h-8.67Zm-.4,17a11.2,11.2,0,0,1-2,3.58,10.48,10.48,0,0,1-3.22,2.57,10,10,0,0,1-8.67,0,9.53,9.53,0,0,1-3.11-2.6,11.23,11.23,0,0,1-1.85-3.61,13.87,13.87,0,0,1-.61-4.05,13.46,13.46,0,0,1,.61-4,11.18,11.18,0,0,1,1.85-3.58A9.21,9.21,0,0,1,91.45,27a9.44,9.44,0,0,1,4.41-1,8.77,8.77,0,0,1,4.26,1,10.88,10.88,0,0,1,3.22,2.6,11.13,11.13,0,0,1,2,3.61,12.49,12.49,0,0,1,.69,4A12.12,12.12,0,0,1,105.36,41.31Z"/><path class="cls-1" d="M168.34,19a18.64,18.64,0,1,0,18,18.05A18.7,18.7,0,0,0,168.34,19Zm-.58,30.79A9.55,9.55,0,0,1,158.44,40q0-4.48,6.42-12.1c.5-.6,1.3-1.5,2.38-2.68a.7.7,0,0,1,1,0c1,1.11,1.76,1.95,2.24,2.51q6.55,7.74,6.56,12.27A9.55,9.55,0,0,1,167.76,49.74Z"/></g></g></svg>