<svg xmlns="http://www.w3.org/2000/svg" viewBox="0 0 647.08 250"><defs><style>.cls-1{fill:#fff;}</style></defs><title>Hydro-Wht-250</title><g id="Layer_2" data-name="Layer 2"><g id="Layer_1-2" data-name="Layer 1"><path class="cls-1" d="M585.17,88.27a2.42,2.42,0,0,0-3.57,0q-5.52,6.09-8.12,9.17-21.94,26-21.94,41.34c0,18.43,14.26,33.38,31.85,33.38s31.84-14.95,31.84-33.38q0-15.47-22.41-41.91Q590.36,94,585.17,88.27Z"/><path class="cls-1" d="M358.81,102.91a38,38,0,0,0-11.17-9,30.66,30.66,0,0,0-14.81-3.52,32.76,32.76,0,0,0-15.31,3.39,32.12,32.12,0,0,0-10.79,8.91,38.71,38.71,0,0,0-6.4,12.43A46.66,46.66,0,0,0,298.19,129a47.88,47.88,0,0,0,2.14,14,38.5,38.5,0,0,0,6.4,12.55,33.44,33.44,0,0,0,10.79,9,34.6,34.6,0,0,0,30.12.12,36.08,36.08,0,0,0,11.17-8.91,38.75,38.75,0,0,0,7-12.42,42.4,42.4,0,0,0,2.38-13.93,43.52,43.52,0,0,0-2.38-14.06A38.53,38.53,0,0,0,358.81,102.91Z"/><path class="cls-1" d="M195.53,156.88H195L161.4,69.28H128l51.71,120.48-6,15.31q-2,4.77-3.76,8.28a24,24,0,0,1-4,5.9,13.61,13.61,0,0,1-5.52,3.52,24.81,24.81,0,0,1-8,1.13,42.24,42.24,0,0,1-5.4-.38,31.56,31.56,0,0,1-5.9-1.38l-2.51,26.1a54,54,0,0,0,7.91,1.38c2.59.25,5.15.38,7.66.38a57.36,57.36,0,0,0,17.19-2.26,36.15,36.15,0,0,0,12.42-6.65,40.85,40.85,0,0,0,9-10.79,105.53,105.53,0,0,0,7-14.69l57-146.33H225.4Z"/><path class="cls-1" d="M100.53,80.82A40,40,0,0,0,86.72,69.9q-8.4-4.14-20.2-4.14A42.92,42.92,0,0,0,54,67.52a41.67,41.67,0,0,0-10.3,4.64,40.71,40.71,0,0,0-7.9,6.53,28.93,28.93,0,0,0-5.15,7.4h-.5V0H0V189.76H30.12V124a40.35,40.35,0,0,1,1.76-11.8,33.13,33.13,0,0,1,5.27-10.42,26,26,0,0,1,8.78-7.4,26.75,26.75,0,0,1,12.55-2.76q7.29,0,11.68,3a20.64,20.64,0,0,1,6.77,7.65,31.44,31.44,0,0,1,3.14,10.3,82.82,82.82,0,0,1,.75,10.91v66.27h30.12v-75.3a65.17,65.17,0,0,0-2.51-18.07A44.25,44.25,0,0,0,100.53,80.82Z"/><path class="cls-1" d="M367.22,84.59h-.75a48.2,48.2,0,0,0-5.78-6.28,44.12,44.12,0,0,0-8.41-6,52.77,52.77,0,0,0-26.23-6.53,56.2,56.2,0,0,0-42.16,18.33,60.51,60.51,0,0,0-12.05,20.08A71,71,0,0,0,267.57,129a74.13,74.13,0,0,0,4.14,25,61.28,61.28,0,0,0,11.8,20.33,56.61,56.61,0,0,0,18.57,13.81,57.33,57.33,0,0,0,24.73,5.14,53.39,53.39,0,0,0,24-5.52,41,41,0,0,0,17.44-16.06h.5v18.07h28.62V0H367.22Zm-1.38,58.86a38.75,38.75,0,0,1-7,12.42,36.08,36.08,0,0,1-11.17,8.91,34.6,34.6,0,0,1-30.12-.12,33.44,33.44,0,0,1-10.79-9,38.5,38.5,0,0,1-6.4-12.55,47.88,47.88,0,0,1-2.14-14,46.66,46.66,0,0,1,2.14-13.93,38.71,38.71,0,0,1,6.4-12.43,32.12,32.12,0,0,1,10.79-8.91,32.76,32.76,0,0,1,15.31-3.39,30.66,30.66,0,0,1,14.81,3.52,38,38,0,0,1,11.17,9,38.53,38.53,0,0,1,7,12.55,43.52,43.52,0,0,1,2.38,14.06A42.4,42.4,0,0,1,365.84,143.45Z"/><path class="cls-1" d="M498.49,65.76a35.05,35.05,0,0,0-21.08,6.53,44,44,0,0,0-14.06,17.07h-.5V69.28H434V189.76h30.12V125.25a41.7,41.7,0,0,1,1.25-8.78,32.49,32.49,0,0,1,4.77-10.8,30.15,30.15,0,0,1,9.79-9q6.27-3.77,16.57-3.77a37.18,37.18,0,0,1,4.14.25,40.94,40.94,0,0,1,5.14,1V66.52a13.43,13.43,0,0,0-3.51-.63C500.92,65.81,499.67,65.76,498.49,65.76Z"/><path class="cls-1" d="M647.05,128.65a63.69,63.69,0,1,0-65.64,65.63A63.7,63.7,0,0,0,647.05,128.65Zm-63.66,43.51c-17.59,0-31.85-14.95-31.85-33.38q0-15.3,21.94-41.34,2.6-3.07,8.12-9.17a2.42,2.42,0,0,1,3.57,0q5.19,5.7,7.65,8.6,22.41,26.44,22.41,41.91C615.23,157.21,601,172.16,583.39,172.16Z"/></g></g></svg>