<svg xmlns="http://www.w3.org/2000/svg" viewBox="0 0 1325.36 512"><defs><style>.cls-1{fill:#fff;}</style></defs><title>Hydro-Wht-512</title><g id="Layer_2" data-name="Layer 2"><g id="Layer_1-2" data-name="Layer 1"><path class="cls-1" d="M205.88,165.53a81.59,81.59,0,0,0-28.27-22.37q-17.22-8.47-41.39-8.48a87.86,87.86,0,0,0-25.7,3.6,84.69,84.69,0,0,0-21.07,9.51,83.17,83.17,0,0,0-16.2,13.37A59.77,59.77,0,0,0,62.88,176a.62.62,0,0,1-.56.36.63.63,0,0,1-.63-.63V.63A.63.63,0,0,0,61.06,0H.63A.63.63,0,0,0,0,.63V388a.64.64,0,0,0,.63.64H61.06a.64.64,0,0,0,.63-.64v-134a82.56,82.56,0,0,1,3.6-24.16,67.46,67.46,0,0,1,10.79-21.33,53.17,53.17,0,0,1,18-15.16q10.8-5.65,25.71-5.66t23.9,6.17a42.07,42.07,0,0,1,13.88,15.68A64.3,64.3,0,0,1,164,230.55a169.15,169.15,0,0,1,1.55,22.37V388a.64.64,0,0,0,.63.64h60.42a.64.64,0,0,0,.63-.64V234.41a133.91,133.91,0,0,0-5.14-37A90.23,90.23,0,0,0,205.88,165.53Z"/><path class="cls-1" d="M525,141.88H462.07a.61.61,0,0,0-.59.43L400.6,320.86a.65.65,0,0,1-.6.43h-.14a.63.63,0,0,1-.59-.41l-68.58-178.6a.62.62,0,0,0-.59-.4h-67a.63.63,0,0,0-.58.88L368,388.39a.61.61,0,0,1,0,.48L355.73,420q-4.11,9.78-7.71,17A49.72,49.72,0,0,1,339.79,449a27.82,27.82,0,0,1-11.31,7.19A50.48,50.48,0,0,1,312,458.54a86.5,86.5,0,0,1-11-.77,64.64,64.64,0,0,1-11.33-2.59.64.64,0,0,0-.83.54l-5,52.14a.63.63,0,0,0,.48.67,110.71,110.71,0,0,0,15.66,2.7q8,.76,15.68.77,20.56,0,35.21-4.63a74,74,0,0,0,25.45-13.62,83.75,83.75,0,0,0,18.51-22.1,215,215,0,0,0,14.39-30.08L525.54,142.74A.63.63,0,0,0,525,141.88Z"/><path class="cls-1" d="M1035.38,136.08a29.37,29.37,0,0,0-6.75-1.14q-4.12-.25-7.71-.26-24.67,0-43.19,13.37a89.88,89.88,0,0,0-28.61,34.6.65.65,0,0,1-.57.35h0a.63.63,0,0,1-.63-.63V142.51a.63.63,0,0,0-.63-.63H889.43a.63.63,0,0,0-.63.63V388a.64.64,0,0,0,.63.64h60.43a.64.64,0,0,0,.63-.64V256.51q0-6.67,2.57-18a66.08,66.08,0,0,1,9.77-22.1,61.65,61.65,0,0,1,20-18.51q12.84-7.71,33.92-7.71a73.12,73.12,0,0,1,8.48.51,85.63,85.63,0,0,1,9.76,1.87.63.63,0,0,0,.78-.61V136.69A.63.63,0,0,0,1035.38,136.08Z"/><path class="cls-1" d="M813.12,0H752.7a.64.64,0,0,0-.64.63v172a.63.63,0,0,1-.63.63h-.6a.6.6,0,0,1-.49-.25,99.17,99.17,0,0,0-11.64-12.6,90.51,90.51,0,0,0-17.22-12.34,107.84,107.84,0,0,0-53.72-13.37,115.13,115.13,0,0,0-86.36,37.53,124.18,124.18,0,0,0-24.68,41.12A145.83,145.83,0,0,0,548,264.22a151.67,151.67,0,0,0,8.49,51.15A125.17,125.17,0,0,0,580.63,357a116.2,116.2,0,0,0,38,28.28Q641,395.82,669.3,395.82a109.25,109.25,0,0,0,49.09-11.31,83.93,83.93,0,0,0,35.55-32.59.62.62,0,0,1,.54-.31h0a.64.64,0,0,1,.63.64V388a.64.64,0,0,0,.63.64h57.34a.64.64,0,0,0,.63-.64V.63A.63.63,0,0,0,813.12,0ZM749.24,293.78a79.6,79.6,0,0,1-14.4,25.45A74.32,74.32,0,0,1,712,337.48q-13.37,6.93-30.33,6.94-18,0-31.36-7.2a68.57,68.57,0,0,1-22.1-18.51A79,79,0,0,1,615.07,293a98.72,98.72,0,0,1-4.37-28.79,96.27,96.27,0,0,1,4.37-28.53,79.62,79.62,0,0,1,13.11-25.44A65.8,65.8,0,0,1,650.28,192q13.37-6.94,31.36-6.94,17,0,30.33,7.2a77.53,77.53,0,0,1,22.87,18.5,79,79,0,0,1,14.4,25.71,89.23,89.23,0,0,1,4.88,28.78A87,87,0,0,1,749.24,293.78Z"/><path class="cls-1" d="M1325.29,264.37a131.37,131.37,0,0,0-127.22-127.23c-75.46-2.3-137.69,59.94-135.39,135.39a131.37,131.37,0,0,0,127.23,127.23C1265.36,402.06,1327.6,339.83,1325.29,264.37ZM1194,354.13c-36.28,0-65.69-30.83-65.69-68.86q0-31.56,45.24-85.26,5.36-6.36,16.77-18.91a5,5,0,0,1,7.36,0q10.69,11.75,15.77,17.73,46.23,54.54,46.23,86.44C1259.67,323.3,1230.26,354.13,1194,354.13Z"/></g></g></svg>