<svg xmlns="http://www.w3.org/2000/svg" viewBox="0 0 372.8 144"><defs><style>.cls-1{fill:#9b9b9b;}</style></defs><title>Hydro-Gry-144</title><g id="Layer_2" data-name="Layer 2"><g id="Layer_1-2" data-name="Layer 1"><path class="cls-1" d="M112.63,90.36h-.29L93,39.9H73.73l29.79,69.4-3.47,8.82c-.77,1.83-1.5,3.42-2.17,4.77a14.46,14.46,0,0,1-2.31,3.4,7.78,7.78,0,0,1-3.18,2,14.15,14.15,0,0,1-4.63.65,25,25,0,0,1-3.11-.21,18.34,18.34,0,0,1-3.4-.8l-1.44,15a31.23,31.23,0,0,0,4.55.79c1.5.15,3,.22,4.41.22a33,33,0,0,0,9.9-1.3,21,21,0,0,0,7.16-3.83,23.53,23.53,0,0,0,5.21-6.22,60.78,60.78,0,0,0,4-8.46L147.9,39.9H129.83Z"/><path class="cls-1" d="M57.9,46.55A22.91,22.91,0,0,0,50,40.27a26,26,0,0,0-11.64-2.39,24.92,24.92,0,0,0-7.23,1,24,24,0,0,0-5.92,2.68,22.86,22.86,0,0,0-4.56,3.76,16.5,16.5,0,0,0-3,4.26h-.29V0H0V109.3H17.35V71.42a23.32,23.32,0,0,1,1-6.79,19.08,19.08,0,0,1,3-6,14.85,14.85,0,0,1,5.06-4.27,15.37,15.37,0,0,1,7.23-1.59,11,11,0,0,1,10.62,6.15,18,18,0,0,1,1.81,5.92,47.51,47.51,0,0,1,.43,6.29V109.3H63.9V65.93a37.81,37.81,0,0,0-1.44-10.41A25.46,25.46,0,0,0,57.9,46.55Z"/><path class="cls-1" d="M211.52,48.72h-.44a27.32,27.32,0,0,0-3.32-3.61,25.57,25.57,0,0,0-4.84-3.47,30.19,30.19,0,0,0-15.11-3.76,32.4,32.4,0,0,0-24.29,10.55A35,35,0,0,0,156.58,60a40.94,40.94,0,0,0-2.46,14.31,42.73,42.73,0,0,0,2.39,14.39,35.32,35.32,0,0,0,6.79,11.71,32.58,32.58,0,0,0,10.7,8,33,33,0,0,0,14.24,3,30.74,30.74,0,0,0,13.81-3.18,23.68,23.68,0,0,0,10-9.26h.29V109.3h16.48V0H211.52Zm-.8,33.91a22.11,22.11,0,0,1-4.05,7.15,21,21,0,0,1-6.43,5.14,19.9,19.9,0,0,1-17.35-.08,19.39,19.39,0,0,1-6.22-5.2A22.45,22.45,0,0,1,173,82.41a27.75,27.75,0,0,1-1.23-8.1,27,27,0,0,1,1.23-8,22.62,22.62,0,0,1,3.68-7.16A18.58,18.58,0,0,1,182.89,54a18.93,18.93,0,0,1,8.82-2,17.71,17.71,0,0,1,8.53,2,22,22,0,0,1,10.48,12.44,24.92,24.92,0,0,1,1.38,8.09A24.35,24.35,0,0,1,210.72,82.63Z"/><path class="cls-1" d="M287.13,37.88A20.17,20.17,0,0,0,275,41.64a25.35,25.35,0,0,0-8.1,9.83h-.29V39.9H250v69.4h17.35V72.15a24.38,24.38,0,0,1,.72-5.07,18.53,18.53,0,0,1,2.75-6.21,17.21,17.21,0,0,1,5.63-5.21A18.47,18.47,0,0,1,286,53.49a19.62,19.62,0,0,1,2.38.15,23.11,23.11,0,0,1,3,.58V38.31a8.29,8.29,0,0,0-2-.36C288.53,37.9,287.81,37.88,287.13,37.88Z"/><path class="cls-1" d="M372.78,74.35a36.95,36.95,0,1,0-38.08,38.08A36.95,36.95,0,0,0,372.78,74.35ZM335.85,99.6c-10.2,0-18.47-8.67-18.47-19.37q0-8.88,12.72-24,1.51-1.78,4.72-5.32a1.4,1.4,0,0,1,2.07,0q3,3.32,4.43,5,13,15.35,13,24.31C354.33,90.93,346.06,99.6,335.85,99.6Z"/></g></g></svg>