<svg xmlns="http://www.w3.org/2000/svg" viewBox="0 0 295.13 114"><defs><style>.cls-1{fill:#9b9b9b;}</style></defs><title>Hydro-Gry-114</title><g id="Layer_2" data-name="Layer 2"><g id="Layer_1-2" data-name="Layer 1"><path class="cls-1" d="M45.84,36.86a18.21,18.21,0,0,0-6.29-5A20.69,20.69,0,0,0,30.33,30a19.67,19.67,0,0,0-5.72.8,18.49,18.49,0,0,0-4.69,2.12,18.28,18.28,0,0,0-3.61,3A13.34,13.34,0,0,0,14,39.26h-.23V0H0V86.53H13.73v-30a18.23,18.23,0,0,1,.81-5.38,15,15,0,0,1,2.4-4.75A11.82,11.82,0,0,1,21,43a12.16,12.16,0,0,1,5.72-1.26A9.21,9.21,0,0,1,32,43.15a9.33,9.33,0,0,1,3.09,3.49,14.26,14.26,0,0,1,1.43,4.69,37.61,37.61,0,0,1,.35,5V86.53H50.59V52.19A30,30,0,0,0,49.45,44,20.25,20.25,0,0,0,45.84,36.86Z"/><path class="cls-1" d="M89.16,71.54h-.23L73.6,31.59H58.37L82,86.53l-2.75,7q-.92,2.17-1.71,3.78A11.53,11.53,0,0,1,75.66,100a6.26,6.26,0,0,1-2.52,1.6,11.35,11.35,0,0,1-3.66.52,18,18,0,0,1-2.46-.18,14.27,14.27,0,0,1-2.69-.62l-1.15,11.9a26,26,0,0,0,3.61.63c1.18.11,2.34.17,3.49.17a26.15,26.15,0,0,0,7.84-1,16.64,16.64,0,0,0,5.66-3A18.55,18.55,0,0,0,87.9,105a47.08,47.08,0,0,0,3.21-6.7l26-66.73H102.78Z"/><path class="cls-1" d="M167.45,38.57h-.34a23,23,0,0,0-2.63-2.86A20.33,20.33,0,0,0,160.64,33a24.14,24.14,0,0,0-12-3,25.63,25.63,0,0,0-19.23,8.35A27.86,27.86,0,0,0,124,47.5,32.38,32.38,0,0,0,122,58.83a33.78,33.78,0,0,0,1.89,11.39,27.85,27.85,0,0,0,5.38,9.27A25.58,25.58,0,0,0,149,88.13,24.27,24.27,0,0,0,160,85.61a18.66,18.66,0,0,0,8-7.32h.23v8.24h13.05V0H167.45Zm-.63,26.84a17.65,17.65,0,0,1-3.2,5.67,16.45,16.45,0,0,1-5.1,4.06,15.7,15.7,0,0,1-13.73-.06A15.12,15.12,0,0,1,139.87,71,17.49,17.49,0,0,1,137,65.24a21.92,21.92,0,0,1-1-6.41,21.33,21.33,0,0,1,1-6.35,17.75,17.75,0,0,1,2.92-5.67,14.59,14.59,0,0,1,4.92-4.06,14.94,14.94,0,0,1,7-1.54,14,14,0,0,1,6.75,1.6,17.23,17.23,0,0,1,5.1,4.12,17.47,17.47,0,0,1,3.2,5.72,19.71,19.71,0,0,1,1.09,6.41A19.19,19.19,0,0,1,166.82,65.41Z"/><path class="cls-1" d="M227.31,30a16,16,0,0,0-9.61,3,20.07,20.07,0,0,0-6.41,7.79h-.23V31.59H197.9V86.53h13.73V57.11a19.2,19.2,0,0,1,.57-4,14.87,14.87,0,0,1,2.18-4.92,13.68,13.68,0,0,1,4.46-4.12,14.54,14.54,0,0,1,7.56-1.72,17.69,17.69,0,0,1,1.89.11,19.78,19.78,0,0,1,2.34.46V30.33a6.11,6.11,0,0,0-1.6-.28C228.42,30,227.85,30,227.31,30Z"/><path class="cls-1" d="M295.12,58.86A29.25,29.25,0,1,0,265,89,29.25,29.25,0,0,0,295.12,58.86Zm-29.24,20c-8.07,0-14.62-6.87-14.62-15.33q0-7,10.07-19,1.2-1.41,3.73-4.21a1.11,1.11,0,0,1,1.64,0c1.59,1.75,2.76,3.06,3.51,4q10.31,12.15,10.3,19.25C280.51,72,274,78.85,265.88,78.85Z"/></g></g></svg>