<svg xmlns="http://www.w3.org/2000/svg" viewBox="0 0 258.89 100"><title>Hydro-Blk-100</title><g id="Layer_2" data-name="Layer 2"><g id="Layer_1-2" data-name="Layer 1"><path d="M78.21,62.75H78l-13.45-35H51.2L71.89,75.9,69.48,82c-.54,1.27-1,2.37-1.51,3.31a9.85,9.85,0,0,1-1.6,2.36,5.45,5.45,0,0,1-2.21,1.41,10,10,0,0,1-3.22.45,16.56,16.56,0,0,1-2.15-.15,13.16,13.16,0,0,1-2.36-.55l-1,10.44a22.77,22.77,0,0,0,3.16.55c1,.1,2.06.15,3.07.15a23,23,0,0,0,6.87-.9,14.55,14.55,0,0,0,5-2.66,16.48,16.48,0,0,0,3.62-4.32,42.91,42.91,0,0,0,2.81-5.87l22.79-58.54H90.16Z"/><path d="M40.21,32.33A16,16,0,0,0,34.69,28a18.2,18.2,0,0,0-8.08-1.65,17.11,17.11,0,0,0-5,.7,16.54,16.54,0,0,0-4.12,1.86,16.28,16.28,0,0,0-3.16,2.61,11.34,11.34,0,0,0-2.06,3h-.2V0H0V75.9H12.05V49.6a16.06,16.06,0,0,1,.7-4.72,13.23,13.23,0,0,1,2.11-4.17,10.48,10.48,0,0,1,3.51-3,10.78,10.78,0,0,1,5-1.1,8.14,8.14,0,0,1,4.67,1.2,8.21,8.21,0,0,1,2.71,3.06A12.47,12.47,0,0,1,32,45a33.22,33.22,0,0,1,.3,4.37V75.9H44.38V45.78a26.25,26.25,0,0,0-1-7.23A17.68,17.68,0,0,0,40.21,32.33Z"/><path d="M146.89,33.84h-.3a19.88,19.88,0,0,0-2.31-2.51,17.42,17.42,0,0,0-3.37-2.41,20.84,20.84,0,0,0-4.56-1.86,21.51,21.51,0,0,0-5.93-.75,22.44,22.44,0,0,0-16.87,7.32,24.45,24.45,0,0,0-4.82,8,28.62,28.62,0,0,0-1.7,9.94,29.83,29.83,0,0,0,1.65,10,24.65,24.65,0,0,0,4.72,8.13,22.5,22.5,0,0,0,17.32,7.58,21.37,21.37,0,0,0,9.59-2.21,16.32,16.32,0,0,0,7-6.43h.2V75.9h11.45V0H146.89Zm-.55,23.54a15.58,15.58,0,0,1-2.82,5,14.36,14.36,0,0,1-4.46,3.56,13.8,13.8,0,0,1-12,0,13.37,13.37,0,0,1-4.32-3.61,15.48,15.48,0,0,1-2.56-5,19.26,19.26,0,0,1-.85-5.62,18.8,18.8,0,0,1,.85-5.58,15.64,15.64,0,0,1,2.56-5A12.87,12.87,0,0,1,127,37.5a13.15,13.15,0,0,1,6.12-1.35,12.28,12.28,0,0,1,5.93,1.4,15,15,0,0,1,4.46,3.62,15.4,15.4,0,0,1,2.82,5,17.5,17.5,0,0,1,.95,5.62A17.11,17.11,0,0,1,146.34,57.38Z"/><path d="M199.4,26.31A14,14,0,0,0,191,28.92a17.56,17.56,0,0,0-5.62,6.82h-.2v-8H173.59V75.9h12V50.1a17,17,0,0,1,.5-3.51,13.1,13.1,0,0,1,1.91-4.32A12.06,12.06,0,0,1,192,38.65a12.8,12.8,0,0,1,6.62-1.5,13.55,13.55,0,0,1,1.66.1,17.4,17.4,0,0,1,2.06.4v-11a5.15,5.15,0,0,0-1.41-.25C200.37,26.32,199.87,26.31,199.4,26.31Z"/><path d="M258.88,51.39a25.89,25.89,0,1,0-26.69,26.69A25.89,25.89,0,0,0,258.88,51.39ZM233,69.08c-7.15,0-12.95-6.07-12.95-13.57q0-6.21,8.92-16.8,1-1.26,3.3-3.73a1,1,0,0,1,1.45,0c1.41,1.54,2.44,2.71,3.11,3.5q9.12,10.74,9.11,17C245.94,63,240.15,69.08,233,69.08Z"/></g></g></svg>