<svg xmlns="http://www.w3.org/2000/svg" viewBox="0 0 2650.71 1024"><title>Hydro-Blk-1024</title><g id="Layer_2" data-name="Layer 2"><g id="Layer_1-2" data-name="Layer 1"><path d="M411.76,331.05q-22.11-27.75-56.55-44.72t-82.76-17A175.79,175.79,0,0,0,221,276.56a169.78,169.78,0,0,0-42.15,19,166.23,166.23,0,0,0-32.38,26.73Q133,336.88,125.77,351.93a1.25,1.25,0,0,1-1.13.71,1.26,1.26,0,0,1-1.27-1.26V1.26A1.26,1.26,0,0,0,122.11,0H1.26A1.27,1.27,0,0,0,0,1.26V776a1.26,1.26,0,0,0,1.26,1.26H122.11a1.25,1.25,0,0,0,1.26-1.26V507.89a165,165,0,0,1,7.2-48.32,135.31,135.31,0,0,1,21.59-42.67,106.5,106.5,0,0,1,36-30.33q21.6-11.31,51.41-11.31t47.81,12.34A84.23,84.23,0,0,1,315.12,419,128.91,128.91,0,0,1,328,461.11a339.48,339.48,0,0,1,3.08,44.72V776a1.26,1.26,0,0,0,1.27,1.26H453.16a1.26,1.26,0,0,0,1.27-1.26V468.82a267.83,267.83,0,0,0-10.29-74A180.83,180.83,0,0,0,411.76,331.05Z"/><path d="M1049.91,283.76H924.15a1.27,1.27,0,0,0-1.2.85L801.19,641.71a1.25,1.25,0,0,1-1.19.86h-.29a1.27,1.27,0,0,1-1.18-.81L661.39,284.57a1.27,1.27,0,0,0-1.18-.81h-134a1.27,1.27,0,0,0-1.16,1.76L735.92,776.78a1.23,1.23,0,0,1,0,1L711.45,840Q703.23,859.5,696,873.9a99.9,99.9,0,0,1-16.45,24.16A55.7,55.7,0,0,1,657,912.45q-13.37,4.62-32.9,4.63a171.18,171.18,0,0,1-22.1-1.55,127.4,127.4,0,0,1-22.66-5.16,1.26,1.26,0,0,0-1.65,1.07l-10,104.27a1.28,1.28,0,0,0,1,1.36,221.61,221.61,0,0,0,31.32,5.39q15.95,1.55,31.36,1.54,41.13,0,70.43-9.25t50.89-27.25a167.18,167.18,0,0,0,37-44.21,428.13,428.13,0,0,0,28.79-60.14l232.71-597.67A1.26,1.26,0,0,0,1049.91,283.76Z"/><path d="M2070.77,272.17a58.35,58.35,0,0,0-13.52-2.29q-8.22-.51-15.42-.51-49.35,0-86.36,26.73-36.71,26.5-57.23,69.19a1.26,1.26,0,0,1-1.14.72h0a1.26,1.26,0,0,1-1.26-1.26V285a1.26,1.26,0,0,0-1.26-1.26H1778.87a1.25,1.25,0,0,0-1.26,1.26V776a1.25,1.25,0,0,0,1.26,1.26h120.85A1.26,1.26,0,0,0,1901,776V513q0-13.36,5.14-36t19.53-44.2q14.4-21.6,40.1-37t67.86-15.42a144.25,144.25,0,0,1,17,1,166.7,166.7,0,0,1,19.51,3.72,1.26,1.26,0,0,0,1.57-1.22V273.38A1.27,1.27,0,0,0,2070.77,272.17Z"/><path d="M1626.24,0H1505.39a1.26,1.26,0,0,0-1.26,1.26v344a1.26,1.26,0,0,1-1.26,1.26h-1.2a1.25,1.25,0,0,1-1-.49,198.84,198.84,0,0,0-23.27-25.21A181.44,181.44,0,0,0,1443,296.1q-20.06-11.31-46.78-19t-60.66-7.71q-52.44,0-96.64,20a230.46,230.46,0,0,0-76.08,55q-31.87,34.95-49.35,82.25T1096,528.45q0,54.49,17,102.3T1161.25,714q31.37,35.47,76.08,56.55t101.27,21.08q52.44,0,98.19-22.62,45.42-22.46,71.09-65.19a1.23,1.23,0,0,1,1.07-.61h.08a1.26,1.26,0,0,1,1.27,1.26V776a1.25,1.25,0,0,0,1.26,1.26h114.68a1.25,1.25,0,0,0,1.26-1.26V1.26A1.26,1.26,0,0,0,1626.24,0ZM1498.47,587.57a159,159,0,0,1-28.78,50.89,148.68,148.68,0,0,1-45.75,36.5q-26.73,13.88-60.66,13.88-36,0-62.72-14.4a137.23,137.23,0,0,1-44.21-37A158.4,158.4,0,0,1,1230.14,586a197.14,197.14,0,0,1-8.74-57.57,192.12,192.12,0,0,1,8.74-57.06,159.37,159.37,0,0,1,26.21-50.89,131.71,131.71,0,0,1,44.21-36.5q26.73-13.87,62.72-13.88,33.93,0,60.66,14.39a155.47,155.47,0,0,1,45.75,37,157.88,157.88,0,0,1,28.78,51.4,178,178,0,0,1,9.77,57.58A173.49,173.49,0,0,1,1498.47,587.57Z"/><path d="M2650.59,528.74c-4.23-138.62-115.84-250.22-254.46-254.45-150.91-4.61-275.38,119.86-270.77,270.77,4.23,138.63,115.83,250.23,254.45,254.46C2530.72,804.12,2655.19,679.65,2650.59,528.74ZM2388,708.26c-72.55,0-131.37-61.66-131.37-137.72q0-63.12,90.48-170.53,10.71-12.7,33.54-37.81a10,10,0,0,1,14.72,0q21.38,23.48,31.54,35.46,92.46,109.07,92.46,172.88C2519.34,646.6,2460.53,708.26,2388,708.26Z"/></g></g></svg>